<?xml version="1.0" encoding="utf-8"?>
<!-- Generator: Adobe Illustrator 26.0.3, SVG Export Plug-In . SVG Version: 6.00 Build 0)  -->
<svg version="1.1" id="Layer_1" xmlns="http://www.w3.org/2000/svg" xmlns:xlink="http://www.w3.org/1999/xlink" x="0px" y="0px"
	 viewBox="0 0 515.9 342.3" style="enable-background:new 0 0 515.9 342.3;" xml:space="preserve">
<style type="text/css">
	.st0{fill:#EF7C00;}
	
		.st1{clip-path:url(#SVGID_00000150791334932542400810000008269895032557548420_);fill:url(#SVGID_00000027571298645837655050000015083161630999332758_);}
	.st2{fill-rule:evenodd;clip-rule:evenodd;}
	
		.st3{clip-path:url(#SVGID_00000106136891009758534150000014962345594463053984_);fill:url(#SVGID_00000108292284414893705440000008543855320156635530_);}
	.st4{fill-rule:evenodd;clip-rule:evenodd;fill:#575656;}
	.st5{fill:none;stroke:#000000;stroke-width:0.5;stroke-miterlimit:2.6131;}
	.st6{fill-rule:evenodd;clip-rule:evenodd;fill:#EF7C00;}
</style>
<path d="M496.3,320.5l3.9-0.6c0.1,2.5,1,3.8,2.7,3.8c0.7,0,1.3-0.2,1.8-0.7c0.5-0.5,0.7-1.1,0.7-1.8c0-1.3-1.1-3.1-3.3-5.2l-0.4-0.4
	c-1.7-1.6-2.8-2.9-3.4-3.7c-1.1-1.5-1.6-3.1-1.6-4.7c0-1.8,0.6-3.3,1.8-4.6c1.2-1.3,2.7-1.9,4.5-1.9c1.8,0,3.3,0.6,4.3,1.9
	c1,1.2,1.6,2.6,1.7,4.5l-3.9,0.6c-0.1-2.1-0.9-3.2-2.2-3.2c-1.4,0-2.2,0.8-2.2,2.4c0,1.5,1.3,3.4,3.8,5.8c0.1,0.1,0.1,0.1,0.2,0.2
	c1.6,1.5,2.6,2.7,3.2,3.6c0.9,1.4,1.3,2.9,1.3,4.5c0,1.8-0.6,3.4-1.7,4.6c-1.2,1.2-2.7,1.8-4.5,1.8c-2.1,0-3.7-0.7-4.9-2
	C496.9,324.3,496.4,322.7,496.3,320.5 M481.4,307.3c0-2,0.5-3.6,1.6-4.7c1.1-1.2,2.7-1.8,4.7-1.8c2,0,3.5,0.6,4.6,1.9
	c1,1.2,1.5,2.8,1.5,4.7v13.2c0,2.1-0.5,3.8-1.5,5c-1.1,1.3-2.7,2-4.8,2c-4.1,0-6.2-2.4-6.2-7.1V307.3z M489.7,321.4v-14.3
	c0-1.8-0.7-2.7-2.1-2.7c-1.4,0-2.1,0.9-2.1,2.7v14.3c0,1.8,0.7,2.7,2.1,2.7C489,324.1,489.7,323.2,489.7,321.4z M467.6,305.1v-3.7
	H480v3.7h-4.2v22h-4v-22H467.6z M452.9,327.1v-25.7h3.6l5.1,15.4c0.2,0.6,0.5,1.5,0.8,2.7c-0.3-1.7-0.5-2.9-0.5-3.5v-14.6h3.8v25.7
	H462l-4.9-14.2c0,0,0,0,0-0.1l-0.1-0.2c-0.3-1-0.6-1.9-0.8-2.5c0.3,1.9,0.5,3.1,0.5,3.6v13.4H452.9z M439.3,327.1v-25.7h10.5v3.7
	h-6.5v6.7h4.7v3.7h-4.7v7.7h6.5v3.9H439.3z M418.5,327.1v-25.7h5.3l2.6,14.2c0.2,1.2,0.4,2.5,0.4,3.9c0-1.1,0.1-2.4,0.4-3.8
	l2.5-14.3h5.5v25.7h-3.8v-16.2c0-0.9,0.1-2.4,0.3-4.5c0,0-0.1,0.5-0.2,1.4c-0.1,0.7-0.3,1.5-0.4,2.2l-3.3,17.1h-2l-3.1-17.1
	c-0.1-0.9-0.3-2.1-0.7-3.6c0.2,1.9,0.3,3.4,0.3,4.5v16.2H418.5z M404.9,327.1v-25.7h10.5v3.7h-6.5v6.7h4.7v3.7h-4.7v7.7h6.5v3.9
	H404.9z M384.1,327.1v-25.7h5.3l2.6,14.2c0.2,1.2,0.4,2.5,0.4,3.9c0-1.1,0.1-2.4,0.4-3.8l2.5-14.3h5.5v25.7H397v-16.2
	c0-0.9,0.1-2.4,0.3-4.5c0,0-0.1,0.5-0.2,1.4c-0.1,0.7-0.3,1.5-0.4,2.2l-3.3,17.1h-2l-3.1-17.1c-0.1-0.9-0.3-2.1-0.7-3.6
	c0.2,1.9,0.3,3.4,0.3,4.5v16.2H384.1z M345.1,320.5l3.9-0.6c0.1,2.5,1,3.8,2.7,3.8c0.7,0,1.3-0.2,1.8-0.7c0.5-0.5,0.7-1.1,0.7-1.8
	c0-1.3-1.1-3.1-3.3-5.2l-0.4-0.4c-1.7-1.6-2.8-2.9-3.4-3.7c-1.1-1.5-1.6-3.1-1.6-4.7c0-1.8,0.6-3.3,1.8-4.6c1.2-1.3,2.7-1.9,4.5-1.9
	c1.8,0,3.3,0.6,4.3,1.9c1,1.2,1.6,2.6,1.7,4.5l-3.9,0.6c-0.1-2.1-0.9-3.2-2.2-3.2c-1.4,0-2.2,0.8-2.2,2.4c0,1.5,1.3,3.4,3.8,5.8
	c0.1,0.1,0.1,0.1,0.2,0.2c1.6,1.5,2.6,2.7,3.2,3.6c0.9,1.4,1.3,2.9,1.3,4.5c0,1.8-0.6,3.4-1.7,4.6c-1.2,1.2-2.7,1.8-4.5,1.8
	c-2.1,0-3.7-0.7-4.9-2C345.8,324.3,345.2,322.7,345.1,320.5z M332.1,305.1v-3.7h12.4v3.7h-4.2v22h-4v-22H332.1z M317.4,327.1v-25.7
	h3.6l5.1,15.4c0.2,0.6,0.5,1.5,0.8,2.7c-0.3-1.7-0.5-2.9-0.5-3.5v-14.6h3.8v25.7h-3.8l-4.9-14.2c0,0,0,0,0-0.1l-0.1-0.2
	c-0.3-1-0.6-1.9-0.8-2.5c0.3,1.9,0.5,3.1,0.5,3.6v13.4H317.4z M303.8,327.1v-25.7h10.5v3.7h-6.5v6.7h4.7v3.7h-4.7v7.7h6.5v3.9H303.8
	z M287.9,301.4h3.9l2.4,15.2c0.3,1.8,0.4,3.6,0.4,5.3v0.5c0.1-2.4,0.2-4.4,0.5-5.8l2.3-15.2h3.9l-4.6,25.7h-4.2L287.9,301.4z
	 M275.9,327.1v-25.7h10.5v3.7H280v6.7h4.7v3.7H280v7.7h6.5v3.9H275.9z M239.1,327.1v-25.7h10.5v3.7h-6.5v6.7h4.7v3.7h-4.7v7.7h6.5
	v3.9H239.1z M223.2,320.5v-13.2c0-2,0.5-3.6,1.6-4.7c1.1-1.2,2.7-1.8,4.7-1.8c3.9,0,5.8,2.2,5.8,6.6v2.4h-3.9v-2.7
	c0-1.8-0.7-2.6-2.1-2.6c-1.4,0-2.1,0.9-2.1,2.7v14.3c0,1.8,0.7,2.7,2.1,2.7c1.4,0,2.1-0.9,2.1-2.7v-4H229v-3.3h6.3v13l-2.7-1.8
	c-0.9,1.5-2.2,2.3-3.9,2.3C225.1,327.6,223.2,325.2,223.2,320.5z M212.9,317.9h3.1l-1.4-10.7h-0.2L212.9,317.9z M207.5,327.1
	l4.3-25.7h5.3l4.3,25.7h-4.1l-0.8-5.6h-4.1l-0.9,5.6H207.5z M192.4,327.1v-25.7h3.6l5.1,15.4c0.2,0.6,0.5,1.5,0.8,2.7
	c-0.3-1.7-0.5-2.9-0.5-3.5v-14.6h3.8v25.7h-3.8l-4.9-14.2c0,0,0,0,0-0.1l-0.1-0.2c-0.3-1-0.6-1.9-0.8-2.5c0.3,1.9,0.5,3.1,0.5,3.6
	v13.4H192.4z M176.5,320.5v-13.2c0-2,0.5-3.6,1.6-4.7c1.1-1.2,2.7-1.8,4.7-1.8c3.9,0,5.8,2.2,5.8,6.6v2.4h-3.9v-2.7
	c0-1.8-0.7-2.6-2.1-2.6c-1.4,0-2.1,0.9-2.1,2.7v14.3c0,1.8,0.7,2.7,2.1,2.7c1.4,0,2.1-0.9,2.1-2.7v-4h-2.4v-3.3h6.3v13l-2.7-1.8
	c-0.9,1.5-2.2,2.3-3.9,2.3C178.4,327.6,176.5,325.2,176.5,320.5z M168.8,327.1v-25.7h4.1v25.7H168.8z M153.1,320.5l3.9-0.6
	c0.1,2.5,1,3.8,2.7,3.8c0.7,0,1.3-0.2,1.8-0.7c0.5-0.5,0.7-1.1,0.7-1.8c0-1.3-1.1-3.1-3.3-5.2l-0.4-0.4c-1.7-1.6-2.8-2.9-3.4-3.7
	c-1.1-1.5-1.6-3.1-1.6-4.7c0-1.8,0.6-3.3,1.8-4.6c1.2-1.3,2.7-1.9,4.5-1.9c1.8,0,3.3,0.6,4.3,1.9c1,1.2,1.6,2.6,1.7,4.5l-3.9,0.6
	c-0.1-2.1-0.9-3.2-2.2-3.2c-1.4,0-2.2,0.8-2.2,2.4c0,1.5,1.3,3.4,3.8,5.8c0.1,0.1,0.1,0.1,0.2,0.2c1.6,1.5,2.6,2.7,3.2,3.6
	c0.9,1.4,1.3,2.9,1.3,4.5c0,1.8-0.6,3.4-1.7,4.6c-1.2,1.2-2.7,1.8-4.5,1.8c-2.1,0-3.7-0.7-4.9-2
	C153.8,324.3,153.2,322.7,153.1,320.5z M115.2,320.5v-13.2c0-2,0.5-3.6,1.6-4.7c1.1-1.2,2.7-1.8,4.7-1.8c3.9,0,5.8,2.2,5.8,6.6v2.4
	h-3.9v-2.7c0-1.8-0.7-2.6-2.1-2.6c-1.4,0-2.1,0.9-2.1,2.7v14.3c0,1.8,0.7,2.7,2.1,2.7c1.4,0,2.1-0.9,2.1-2.7v-4h-2.4v-3.3h6.3v13
	l-2.7-1.8c-0.9,1.5-2.2,2.3-3.9,2.3C117.1,327.6,115.2,325.2,115.2,320.5z M98.7,327.1v-25.7h3.6l5.1,15.4c0.2,0.6,0.5,1.5,0.8,2.7
	c-0.3-1.7-0.5-2.9-0.5-3.5v-14.6h3.8v25.7h-3.8l-4.9-14.2c0,0,0,0,0-0.1l-0.1-0.2c-0.3-1-0.6-1.9-0.8-2.5c0.3,1.9,0.5,3.1,0.5,3.6
	v13.4H98.7z M90.6,327.1v-25.7h4.1v25.7H90.6z M74.6,327.1v-25.7h5.7c4.4,0,6.5,2.4,6.5,7.1v11.5c0,2.4-0.5,4.1-1.4,5.3
	c-1,1.3-2.7,1.9-5,1.9H74.6z M78.6,323.3h2c1.4,0,2.1-0.9,2.1-2.7v-12.4c0-2-1.1-3.1-3.2-3.1h-0.9V323.3z M57.7,327.1v-25.7h3.6
	l5.1,15.4c0.2,0.6,0.5,1.5,0.8,2.7c-0.3-1.7-0.5-2.9-0.5-3.5v-14.6h3.8v25.7h-3.8l-4.9-14.2c0,0,0,0,0-0.1l-0.1-0.2
	c-0.3-1-0.6-1.9-0.8-2.5c0.3,1.9,0.5,3.1,0.5,3.6v13.4H57.7z M46.8,317.9h3.1l-1.4-10.7h-0.2L46.8,317.9z M41.5,327.1l4.3-25.7h5.3
	l4.3,25.7h-4.1l-0.8-5.6h-4.1l-0.9,5.6H41.5z M31.9,316.2v10.8h-4v-25.7h5.9c2.4,0,4,0.7,5,2c0.8,1.2,1.3,3,1.3,5.4
	c0,3.1-0.9,5.2-2.6,6.3l3,12h-4.2l-2.5-10.8H31.9z M31.9,305.1v7.5h1.6c1.1,0,1.8-0.4,2.2-1.2c0.2-0.5,0.3-1.4,0.3-2.6
	c0-1.2-0.1-2-0.4-2.5c-0.4-0.7-1.1-1-2.2-1H31.9z M12.2,327.1v-25.7h5.3c2.2,0,3.8,0.6,5,1.8c1.2,1.2,1.7,2.8,1.7,4.9
	c0,2.5-0.9,4.5-2.8,5.9c2.1,1.2,3.1,3.3,3.1,6.3c0,4.6-2.2,6.9-6.5,6.9H12.2z M16.2,323.4H18c1.7,0,2.5-1.2,2.5-3.7
	c0-1.3-0.2-2.2-0.5-2.8c-0.5-0.8-1.3-1.1-2.4-1.1h-1.3V323.4z M16.2,312.1h1.6c1.6,0,2.3-1.2,2.3-3.5c0-2.3-0.9-3.5-2.7-3.5h-1.3
	V312.1z"/>
<path class="st0" d="M368.4,327.1v-25.7h4.1v25.7H368.4z M260.3,327.1v-25.7h4.1v25.7H260.3z M138.6,327.1v-25.7h4.1v25.7H138.6z"/>
<g>
	<defs>
		<polygon id="SVGID_1_" points="18.3,4.7 190.4,82.2 188.4,214.9 18.3,284 		"/>
	</defs>
	<clipPath id="SVGID_00000028286332044001854970000016091709985694785193_">
		<use xlink:href="#SVGID_1_"  style="overflow:visible;"/>
	</clipPath>
	
		<linearGradient id="SVGID_00000063604391041528189660000014950229436081025456_" gradientUnits="userSpaceOnUse" x1="191.4725" y1="207.5421" x2="17.2825" y2="81.2421">
		<stop  offset="0" style="stop-color:#6E6E6E"/>
		<stop  offset="0.24" style="stop-color:#D4D1D1"/>
		<stop  offset="0.38" style="stop-color:#A9AAAA"/>
		<stop  offset="0.62" style="stop-color:#CBCCCC"/>
		<stop  offset="0.8" style="stop-color:#E5E5E5"/>
		<stop  offset="1" style="stop-color:#C5C3C2"/>
	</linearGradient>
	
		<rect x="18.3" y="4.7" style="clip-path:url(#SVGID_00000028286332044001854970000016091709985694785193_);fill:url(#SVGID_00000063604391041528189660000014950229436081025456_);" width="172.1" height="279.3"/>
</g>
<polygon class="st2" points="43.1,34.8 43.7,256.9 174.9,207 176.5,92.4 "/>
<g>
	<defs>
		<polygon id="SVGID_00000155107888619538150520000011163905431741360795_" points="127.7,148.2 170.6,202.9 174,207.3 43.7,256.9 
			43.7,255.2 84.8,202.9 		"/>
	</defs>
	<clipPath id="SVGID_00000127028003452534444260000008205184743685331612_">
		<use xlink:href="#SVGID_00000155107888619538150520000011163905431741360795_"  style="overflow:visible;"/>
	</clipPath>
	
		<linearGradient id="SVGID_00000091008109241656886990000005830127462777485491_" gradientUnits="userSpaceOnUse" x1="78.431" y1="156.6547" x2="151.141" y2="266.2747">
		<stop  offset="0" style="stop-color:#F39100"/>
		<stop  offset="0.2" style="stop-color:#F7A600"/>
		<stop  offset="0.37" style="stop-color:#F08100"/>
		<stop  offset="0.48" style="stop-color:#EA7000"/>
		<stop  offset="0.65" style="stop-color:#E74C0B"/>
		<stop  offset="1" style="stop-color:#E6340D"/>
	</linearGradient>
	
		<rect x="43.7" y="148.2" style="clip-path:url(#SVGID_00000127028003452534444260000008205184743685331612_);fill:url(#SVGID_00000091008109241656886990000005830127462777485491_);" width="130.3" height="108.6"/>
</g>
<path class="st0" d="M486.2,122.2l-10.6-24.6L465,122.2H486.2z M415.7,122.2L391,84.6h12.9l17.4,27.5l17.6-27.5h12.5l-24.7,37.3
	v24.8h-11V122.2z M369.9,84.6h10.8v7.3v8v39.9v6.9h-10.8v-6.9v-32.5v-7.8V84.6z M301.9,84.6h10.8v25.8h29.8V84.6h10.8v62.1h-10.8
	v-26.2h-29.8v26.2h-10.8V84.6z M255.6,136.8c3.3,0,6.2-0.5,8.9-1.6c2.7-1,4.9-2.5,6.8-4.4c1.9-1.9,3.3-4.1,4.3-6.7
	c1-2.6,1.6-5.4,1.6-8.4v-0.2c0-3-0.5-5.9-1.6-8.5c-1-2.6-2.5-4.9-4.3-6.7c-1.9-1.9-4.1-3.3-6.8-4.4c-2.7-1.1-5.6-1.6-8.9-1.6h-12.2
	v42.4H255.6z M232.5,84.6h23.2c4.9,0,9.3,0.8,13.4,2.4c4.1,1.6,7.5,3.7,10.5,6.5c2.9,2.8,5.2,6,6.8,9.8c1.6,3.8,2.4,7.8,2.4,12.2
	v0.2c0,4.4-0.8,8.5-2.4,12.2c-1.6,3.8-3.9,7.1-6.8,9.8c-2.9,2.8-6.4,5-10.5,6.6c-4.1,1.6-8.5,2.4-13.4,2.4h-23.2V84.6z M470.7,84.7
	h10l27.1,62h-11.4l-6.2-14.9H461l-6.3,14.9h-11.1L470.7,84.7z"/>
<polygon class="st4" points="18.3,4.7 7.9,9.9 7.9,277.9 18.3,284 "/>
<polygon class="st5" points="43.1,34.8 43.7,256.9 174.9,207 176.5,92.4 "/>
<path d="M507.8,180.2c0,2.2-0.7,4-2,5.6c-1.4,1.6-3.2,2.4-5.4,2.4H478v-6.1h22.5c0.8,0,1.3-0.6,1.3-1.9c0-1.3-0.4-1.9-1.3-1.9h-16.4
	c-2.2,0-3.9-0.8-5.4-2.4c-1.3-1.5-2-3.4-2-5.6c0-2.2,0.7-4.1,2.1-5.7c1.4-1.6,3.2-2.4,5.3-2.4h22.5v6.1H484c-0.8,0-1.3,0.7-1.3,2
	c0,1.3,0.4,1.9,1.3,1.9h16.4c2.2,0,4,0.8,5.4,2.4C507.1,176.2,507.8,178,507.8,180.2 M463.9,188.2h-6.1l-15.6-17.5v17.5h-6.1v-26
	h6.1l15.6,17.4v-17.4h6.1V188.2z M423.3,188.2h-20.1c-2.4,0-4.4-0.8-6-2.3c-1.7-1.6-2.5-3.5-2.5-5.9v-9.6c0-2.4,0.8-4.3,2.5-5.9
	c1.7-1.6,3.7-2.3,6-2.3h20.1v6.1h-20.1c-1.6,0-2.4,0.7-2.4,2.2v9.5c0,1.4,0.8,2.2,2.4,2.2h14.1v-3.9H409v-6.1h14.3V188.2z
	 M381.9,188.2h-6.1v-26h6.1V188.2z M363,180.2c0,2.2-0.7,4-2,5.6c-1.4,1.6-3.2,2.4-5.4,2.4h-22.5v-6.1h22.5c0.8,0,1.3-0.6,1.3-1.9
	c0-1.3-0.4-1.9-1.3-1.9h-16.4c-2.2,0-3.9-0.8-5.4-2.4c-1.3-1.5-2-3.4-2-5.6c0-2.2,0.7-4.1,2.1-5.7c1.4-1.6,3.2-2.4,5.3-2.4h22.5v6.1
	h-22.5c-0.8,0-1.3,0.7-1.3,2c0,1.3,0.4,1.9,1.3,1.9h16.4c2.2,0,4,0.8,5.4,2.4C362.3,176.2,363,178,363,180.2z"/>
<path d="M367.3,209.2h1.8l4.5,10l4.4-10h1.8l-7.8,17.9h-1.8l2.6-5.9L367.3,209.2z M496.3,204.1h1.7v7.4c0.7-0.9,1.4-1.6,2.3-2
	c0.8-0.4,1.7-0.7,2.7-0.7c1,0,1.9,0.2,2.6,0.7c0.8,0.5,1.3,1.2,1.7,2c0.4,0.8,0.5,2.2,0.5,3.9v6.7h-1.7V216c0-1.5-0.1-2.5-0.2-3
	c-0.2-0.9-0.6-1.5-1.1-2c-0.6-0.4-1.3-0.7-2.2-0.7c-1,0-1.9,0.3-2.8,1c-0.8,0.7-1.3,1.5-1.6,2.5c-0.2,0.6-0.2,1.8-0.2,3.6v4.8h-1.7
	V204.1z M489.4,204.3h1.7v4.9h2.7v1.5h-2.7v11.6h-1.7v-11.6h-2.3v-1.5h2.3V204.3z M465.7,209.2h1.7l4,9.5l4.2-9.5h0.3l4.2,9.5
	l4.1-9.5h1.7l-5.7,13.1H480l-4.2-9.4l-4.2,9.4h-0.3L465.7,209.2z M457.5,210.5c-1.4,0-2.6,0.5-3.6,1.5c-1,1-1.5,2.3-1.5,3.7
	c0,0.9,0.2,1.8,0.7,2.6c0.5,0.8,1.1,1.4,1.9,1.9c0.8,0.4,1.6,0.7,2.6,0.7c0.9,0,1.8-0.2,2.6-0.7c0.8-0.4,1.4-1.1,1.9-1.9
	c0.5-0.8,0.7-1.7,0.7-2.6c0-1.5-0.5-2.7-1.5-3.7C460.1,211,458.9,210.5,457.5,210.5z M457.5,208.8c2,0,3.7,0.7,5,2.2
	c1.2,1.3,1.8,2.9,1.8,4.7c0,1.8-0.6,3.4-1.9,4.8c-1.3,1.4-2.9,2-4.9,2c-2,0-3.7-0.7-4.9-2c-1.3-1.4-1.9-3-1.9-4.8
	c0-1.8,0.6-3.4,1.8-4.7C453.8,209.6,455.5,208.8,457.5,208.8z M443.3,209.2h1.7v1.9c0.5-0.8,1.1-1.3,1.6-1.7
	c0.6-0.4,1.2-0.6,1.8-0.6c0.5,0,1,0.1,1.5,0.4l-0.9,1.4c-0.4-0.2-0.6-0.2-0.9-0.2c-0.6,0-1.1,0.2-1.6,0.7c-0.5,0.5-0.9,1.2-1.2,2.2
	c-0.2,0.7-0.3,2.3-0.3,4.5v4.4h-1.7V209.2z M433.7,210.5c-1,0-1.8,0.2-2.7,0.7c-0.8,0.5-1.5,1.1-1.9,1.9c-0.5,0.8-0.7,1.7-0.7,2.6
	c0,1.4,0.5,2.6,1.4,3.6c1,0.9,2.2,1.4,3.7,1.4c1.5,0,2.8-0.5,3.7-1.4c0.9-0.9,1.4-2.2,1.4-3.7c0-1-0.2-1.9-0.6-2.6
	c-0.4-0.8-1-1.4-1.8-1.8C435.4,210.7,434.6,210.5,433.7,210.5z M438.6,209.2h1.7v10.4c0,1.8-0.2,3.2-0.5,4c-0.4,1.2-1.2,2.1-2.3,2.8
	c-1.1,0.6-2.4,1-3.9,1c-1.1,0-2.1-0.2-3-0.5c-0.9-0.3-1.6-0.7-2.2-1.3c-0.6-0.5-1.1-1.3-1.6-2.4h1.8c0.5,0.9,1.1,1.5,1.9,1.9
	c0.8,0.4,1.8,0.6,2.9,0.6c1.2,0,2.1-0.2,2.9-0.6c0.8-0.4,1.4-1,1.7-1.6c0.3-0.6,0.5-1.7,0.5-3.1v-0.7c-0.6,0.8-1.4,1.4-2.3,1.8
	c-0.9,0.4-1.9,0.6-2.9,0.6c-1.2,0-2.3-0.3-3.4-0.9c-1.1-0.6-1.9-1.4-2.5-2.4c-0.6-1-0.9-2.1-0.9-3.3c0-1.2,0.3-2.3,0.9-3.4
	c0.6-1,1.4-1.9,2.5-2.5c1.1-0.6,2.2-0.9,3.4-0.9c1,0,1.9,0.2,2.7,0.6c0.8,0.4,1.7,1.1,2.4,2V209.2z M412.4,209.2h1.7v1.9
	c0.5-0.8,1.1-1.3,1.6-1.7c0.6-0.4,1.2-0.6,1.8-0.6c0.5,0,1,0.1,1.5,0.4l-0.9,1.4c-0.4-0.2-0.7-0.2-0.9-0.2c-0.6,0-1.1,0.2-1.6,0.7
	c-0.5,0.5-0.9,1.2-1.2,2.2c-0.2,0.7-0.3,2.3-0.3,4.5v4.4h-1.7V209.2z M397.9,209.2h1.7v6.1c0,1.5,0.1,2.5,0.2,3.1
	c0.2,0.8,0.7,1.4,1.4,1.9c0.7,0.5,1.5,0.7,2.4,0.7c0.9,0,1.7-0.2,2.4-0.7c0.7-0.5,1.1-1,1.4-1.8c0.2-0.5,0.3-1.6,0.3-3.2v-6.1h1.7
	v6.4c0,1.8-0.2,3.2-0.6,4.1c-0.4,0.9-1.1,1.6-1.9,2.1c-0.8,0.5-1.9,0.8-3.2,0.8c-1.3,0-2.3-0.3-3.2-0.8c-0.9-0.5-1.5-1.2-1.9-2.2
	c-0.4-0.9-0.6-2.3-0.6-4.2V209.2z M388.1,210.5c-1.4,0-2.6,0.5-3.6,1.5c-1,1-1.5,2.3-1.5,3.7c0,0.9,0.2,1.8,0.7,2.6
	c0.5,0.8,1.1,1.4,1.9,1.9c0.8,0.4,1.6,0.7,2.6,0.7c0.9,0,1.8-0.2,2.6-0.7c0.8-0.4,1.4-1.1,1.9-1.9c0.5-0.8,0.7-1.7,0.7-2.6
	c0-1.5-0.5-2.7-1.5-3.7C390.7,211,389.5,210.5,388.1,210.5z M388.1,208.8c2,0,3.7,0.7,5,2.2c1.2,1.3,1.8,2.9,1.8,4.7
	c0,1.8-0.6,3.4-1.9,4.8c-1.3,1.4-2.9,2-4.9,2c-2,0-3.7-0.7-4.9-2c-1.3-1.4-1.9-3-1.9-4.8c0-1.8,0.6-3.4,1.8-4.7
	C384.4,209.6,386.1,208.8,388.1,208.8z M351.6,210.5c-1,0-1.8,0.2-2.7,0.7c-0.8,0.5-1.5,1.1-1.9,1.9c-0.5,0.8-0.7,1.7-0.7,2.6
	c0,1.4,0.5,2.6,1.4,3.6c1,0.9,2.2,1.4,3.7,1.4c1.5,0,2.8-0.5,3.7-1.4c0.9-0.9,1.4-2.2,1.4-3.7c0-1-0.2-1.9-0.7-2.6
	c-0.4-0.8-1-1.4-1.8-1.8C353.4,210.7,352.5,210.5,351.6,210.5z M356.6,209.2h1.7v10.4c0,1.8-0.2,3.2-0.5,4c-0.4,1.2-1.2,2.1-2.3,2.8
	c-1.1,0.6-2.4,1-3.9,1c-1.1,0-2.1-0.2-3-0.5c-0.9-0.3-1.6-0.7-2.2-1.3c-0.6-0.5-1.1-1.3-1.6-2.4h1.8c0.5,0.9,1.1,1.5,1.9,1.9
	c0.8,0.4,1.8,0.6,2.9,0.6c1.2,0,2.1-0.2,2.9-0.6c0.8-0.4,1.4-1,1.7-1.6c0.3-0.6,0.5-1.7,0.5-3.1v-0.7c-0.6,0.8-1.4,1.4-2.3,1.8
	c-0.9,0.4-1.9,0.6-2.9,0.6c-1.2,0-2.3-0.3-3.4-0.9c-1.1-0.6-1.9-1.4-2.5-2.4c-0.6-1-0.9-2.1-0.9-3.3c0-1.2,0.3-2.3,0.9-3.4
	c0.6-1,1.4-1.9,2.5-2.5c1.1-0.6,2.2-0.9,3.4-0.9c1,0,1.9,0.2,2.7,0.6c0.8,0.4,1.7,1.1,2.4,2V209.2z M330.2,209.2h1.7v2.3
	c0.7-0.9,1.4-1.6,2.2-2c0.8-0.4,1.7-0.7,2.7-0.7c1,0,1.9,0.2,2.6,0.7c0.8,0.5,1.3,1.2,1.7,2c0.4,0.8,0.5,2.2,0.5,3.9v6.7H340V216
	c0-1.5-0.1-2.5-0.2-3c-0.2-0.9-0.6-1.5-1.1-2c-0.6-0.4-1.3-0.7-2.2-0.7c-1,0-1.9,0.3-2.7,1c-0.8,0.7-1.3,1.5-1.6,2.5
	c-0.2,0.6-0.2,1.8-0.2,3.6v4.8h-1.7V209.2z M325.1,209.2h1.7v13.1h-1.7V209.2z M325.9,203.8c0.4,0,0.7,0.1,1,0.4
	c0.3,0.3,0.4,0.6,0.4,1c0,0.4-0.1,0.7-0.4,1c-0.3,0.3-0.6,0.4-1,0.4c-0.4,0-0.7-0.1-1-0.4c-0.3-0.3-0.4-0.6-0.4-1
	c0-0.4,0.1-0.7,0.4-1C325.2,203.9,325.5,203.8,325.9,203.8z M317.2,209.2h1.7v1.9c0.5-0.8,1.1-1.3,1.6-1.7c0.6-0.4,1.2-0.6,1.8-0.6
	c0.5,0,1,0.1,1.5,0.4l-0.9,1.4c-0.4-0.2-0.6-0.2-0.9-0.2c-0.6,0-1.1,0.2-1.6,0.7c-0.5,0.5-0.9,1.2-1.2,2.2c-0.2,0.7-0.3,2.3-0.3,4.5
	v4.4h-1.7V209.2z M312.9,214.4c-0.2-0.9-0.6-1.6-1-2.2c-0.4-0.5-1-1-1.7-1.3c-0.7-0.3-1.5-0.5-2.2-0.5c-1.3,0-2.4,0.4-3.3,1.2
	c-0.7,0.6-1.2,1.5-1.5,2.7H312.9z M312.9,217.9l1.4,0.7c-0.5,0.9-1,1.6-1.6,2.2c-0.6,0.6-1.3,1-2.1,1.3c-0.8,0.3-1.6,0.4-2.6,0.4
	c-2.1,0-3.8-0.7-5-2.1c-1.2-1.4-1.8-3-1.8-4.7c0-1.7,0.5-3.1,1.5-4.4c1.3-1.6,3-2.5,5.2-2.5c2.2,0,4,0.8,5.4,2.5
	c0.9,1.2,1.4,2.7,1.5,4.5h-11.8c0,1.5,0.5,2.8,1.5,3.7c0.9,1,2.1,1.5,3.5,1.5c0.7,0,1.3-0.1,2-0.3c0.6-0.2,1.2-0.5,1.6-0.9
	C311.9,219.4,312.4,218.8,312.9,217.9z M286.8,209.2h1.7v2.3c0.7-0.9,1.4-1.6,2.2-2c0.8-0.4,1.7-0.7,2.7-0.7c1,0,1.9,0.2,2.6,0.7
	c0.8,0.5,1.3,1.2,1.7,2c0.4,0.8,0.5,2.2,0.5,3.9v6.7h-1.7V216c0-1.5-0.1-2.5-0.2-3c-0.2-0.9-0.6-1.5-1.1-2c-0.6-0.4-1.3-0.7-2.2-0.7
	c-1,0-1.9,0.3-2.7,1c-0.8,0.7-1.3,1.5-1.6,2.5c-0.2,0.6-0.2,1.8-0.2,3.6v4.8h-1.7V209.2z M279.9,204.3h1.7v4.9h2.7v1.5h-2.7v11.6
	h-1.7v-11.6h-2.3v-1.5h2.3V204.3z M270.4,209.2h1.7v1.9c0.5-0.8,1.1-1.3,1.6-1.7c0.6-0.4,1.2-0.6,1.8-0.6c0.5,0,1,0.1,1.5,0.4
	l-0.9,1.4c-0.4-0.2-0.6-0.2-0.9-0.2c-0.6,0-1.1,0.2-1.6,0.7c-0.5,0.5-0.9,1.2-1.2,2.2c-0.2,0.7-0.3,2.3-0.3,4.5v4.4h-1.7V209.2z
	 M260.5,210.5c-0.9,0-1.8,0.2-2.6,0.7c-0.8,0.5-1.4,1.1-1.9,1.9c-0.5,0.8-0.7,1.7-0.7,2.6c0,0.9,0.2,1.8,0.7,2.6
	c0.5,0.8,1.1,1.5,1.9,2c0.8,0.5,1.7,0.7,2.6,0.7c0.9,0,1.8-0.2,2.6-0.7c0.8-0.5,1.5-1.1,1.9-1.9c0.4-0.8,0.7-1.7,0.7-2.7
	c0-1.5-0.5-2.8-1.5-3.8C263.2,211,261.9,210.5,260.5,210.5z M267.2,209.2v13.1h-1.7V220c-0.7,0.9-1.5,1.5-2.4,1.9
	c-0.9,0.4-1.8,0.6-2.9,0.6c-1.8,0-3.4-0.7-4.7-2c-1.3-1.3-2-3-2-4.9c0-1.9,0.7-3.5,2-4.8c1.3-1.3,2.9-2,4.8-2c1.1,0,2,0.2,2.9,0.7
	c0.9,0.5,1.6,1.1,2.3,2.1v-2.4H267.2z M244.1,210.5c-1.5,0-2.7,0.5-3.7,1.5c-1,1-1.5,2.3-1.5,3.8c0,1,0.2,1.9,0.7,2.7
	c0.4,0.8,1.1,1.4,1.9,1.9c0.8,0.5,1.7,0.7,2.6,0.7c0.9,0,1.8-0.2,2.6-0.7c0.8-0.5,1.4-1.1,1.9-2c0.5-0.8,0.7-1.7,0.7-2.6
	c0-0.9-0.2-1.8-0.7-2.6c-0.5-0.8-1.1-1.5-1.9-1.9C245.9,210.7,245.1,210.5,244.1,210.5z M237.4,209.2h1.7v2.4
	c0.7-0.9,1.4-1.6,2.3-2.1c0.9-0.5,1.8-0.7,2.9-0.7c1.9,0,3.5,0.7,4.8,2c1.3,1.3,2,2.9,2,4.8c0,1.9-0.7,3.6-2,4.9
	c-1.3,1.3-2.9,2-4.7,2c-1,0-2-0.2-2.9-0.6c-0.9-0.4-1.7-1.1-2.4-1.9v7.1h-1.7V209.2z"/>
<rect x="9.5" y="288.9" class="st6" width="499" height="2.4"/>
<rect x="10" y="336.2" class="st6" width="499" height="2.4"/>
</svg>
